# xmcd CD database file
#
# Track frame offsets:
#	150
#	24192
#	40172
#	61115
#	80787
#	105562
#	123550
#	140725
#
# Disc length: 2184 seconds
#
# Revision: 2
# Processed by: cddbd v1.5.1PL0 Copyright (c) Steve Scherf et al.
# Submitted via: CDex 1.51
#
DISCID=66088608
DTITLE=Paco de Lucia - (11)Siroco〜熱風
DYEAR=1987
DGENRE=Flamenco
TTITLE0=ラ・カニャーダ（タンゴス）
TTITLE1=可愛いクーロ（ロンデーニャ）
TTITLE2=ラ・バローサ（アレグリアス）
TTITLE3=さとうきびのルンバ（ルンバ）
TTITLE4=エル・パニュエロ（ブレリアス）
TTITLE5=ムーロの小道（ミネーラ）
TTITLE6=カルシダ（タンギージョス）
TTITLE7=ニーニョ・リカルドに捧げる（ソレア）
EXTD=YEAR: 1987
EXTT0=
EXTT1=
EXTT2=
EXTT3=
EXTT4=
EXTT5=
EXTT6=
EXTT7=
PLAYORDER=
